<?xml version="1.0" standalone="no"?>
<!DOCTYPE svg PUBLIC "-//W3C//DTD SVG 20010904//EN"
 "http://www.w3.org/TR/2001/REC-SVG-20010904/DTD/svg10.dtd">
<svg version="1.0" xmlns="http://www.w3.org/2000/svg"
 width="260.000000pt" height="260.000000pt" viewBox="0 0 260.000000 260.000000"
 preserveAspectRatio="xMidYMid meet">
<metadata>
Created by potrace 1.11, written by Peter Selinger 2001-2013
</metadata>
<g transform="translate(0.000000,260.000000) scale(0.100000,-0.100000)"
fill="#000000" stroke="none">
<path d="M585 2570 c3 -6 4 -10 1 -10 -2 0 -13 -3 -23 -6 -13 -4 -14 -3 -5 4
9 6 -11 9 -62 9 -49 0 -73 -3 -69 -10 4 -6 1 -7 -8 -1 -22 14 -100 14 -92 1 5
-9 3 -9 -8 -1 -17 14 -49 14 -49 1 0 -5 -7 -7 -15 -3 -8 3 -15 2 -15 -3 0 -5
-11 -7 -24 -6 -19 2 -23 -1 -19 -13 4 -9 2 -13 -5 -8 -6 3 -14 1 -17 -5 -4 -5
-14 -8 -22 -5 -8 3 -11 2 -8 -4 3 -5 -4 -14 -15 -20 -11 -6 -18 -15 -15 -21 4
-5 2 -8 -3 -7 -15 5 -65 -61 -58 -78 3 -8 2 -12 -3 -9 -13 7 -21 -21 -23 -78
-1 -26 -6 -47 -9 -47 -4 0 -6 14 -4 31 3 18 1 29 -3 25 -11 -12 -8 -204 3
-199 7 2 11 -16 11 -47 0 -27 -3 -44 -8 -37 -4 6 -5 24 -3 40 3 15 2 27 -3 27
-4 0 -8 -24 -8 -54 1 -33 5 -52 11 -49 7 2 11 -16 11 -47 0 -27 -3 -44 -8 -37
-4 6 -5 24 -3 40 3 15 2 27 -3 27 -4 0 -8 -24 -8 -54 1 -33 5 -52 11 -49 7 2
11 -16 11 -47 0 -27 -3 -44 -8 -37 -4 6 -5 24 -3 40 3 15 2 27 -3 27 -4 0 -8
-24 -8 -54 1 -33 5 -52 11 -49 7 2 11 -16 11 -47 0 -27 -3 -44 -8 -37 -4 6 -5
24 -3 40 3 15 2 27 -3 27 -4 0 -8 -24 -8 -54 1 -33 5 -52 11 -49 7 2 11 -16
11 -47 0 -27 -3 -44 -8 -37 -4 6 -5 24 -3 40 3 15 2 27 -3 27 -4 0 -8 -24 -8
-54 1 -33 5 -52 11 -49 7 2 11 -16 11 -47 0 -27 -3 -44 -8 -37 -4 6 -5 24 -3
40 3 15 2 27 -3 27 -4 0 -8 -24 -8 -54 1 -33 5 -52 11 -49 7 2 11 -16 11 -47
0 -27 -3 -44 -8 -37 -4 6 -5 24 -3 40 3 15 2 27 -3 27 -4 0 -8 -24 -8 -54 1
-33 5 -52 11 -49 7 2 11 -16 11 -47 0 -27 -3 -44 -8 -37 -4 6 -5 24 -3 40 3
15 2 27 -3 27 -4 0 -8 -24 -8 -54 1 -33 5 -52 11 -49 7 2 11 -16 11 -47 0 -27
-3 -44 -8 -37 -4 6 -5 24 -3 40 3 15 2 27 -3 27 -4 0 -8 -24 -8 -54 1 -33 5
-52 11 -49 7 2 11 -16 11 -47 0 -27 -3 -44 -8 -37 -4 6 -5 24 -3 40 3 15 2 27
-3 27 -4 0 -8 -24 -8 -54 1 -34 5 -52 12 -49 6 2 11 -3 11 -11 0 -8 -6 -12
-12 -10 -6 3 -12 -2 -12 -10 0 -9 6 -12 16 -8 14 5 14 3 2 -11 -7 -9 -9 -17
-4 -17 5 0 10 -12 11 -27 3 -38 22 -83 35 -83 6 0 8 -3 5 -6 -3 -3 5 -17 18
-31 13 -14 21 -30 17 -36 -3 -5 -1 -7 4 -4 13 8 55 -27 45 -38 -4 -5 1 -5 10
-2 11 4 23 -2 34 -16 14 -19 15 -19 10 -3 -7 19 -6 19 12 3 10 -9 22 -14 25
-10 4 3 7 2 7 -4 0 -6 10 -11 23 -12 47 -1 62 -4 69 -15 5 -7 8 -3 8 8 0 15 3
17 11 9 7 -7 21 -8 40 -3 18 6 31 5 35 -2 5 -7 2 -8 -6 -3 -9 6 -11 4 -5 -5 7
-11 10 -10 19 1 11 14 59 22 51 8 -3 -4 2 -9 10 -12 9 -4 12 -1 9 7 -3 7 2 13
10 13 8 0 13 -4 11 -8 -3 -4 2 -9 10 -12 8 -4 12 -1 9 6 -3 9 7 12 31 11 19
-1 37 2 40 7 3 4 12 6 20 2 8 -3 15 0 15 7 0 6 4 9 9 5 5 -3 13 0 16 6 4 5 14
8 23 4 9 -3 13 -3 10 1 -8 8 14 34 25 27 4 -2 7 3 7 12 0 11 5 15 15 11 8 -3
14 -2 14 2 -3 20 2 32 13 30 7 -2 13 4 13 12 0 21 37 55 55 52 8 -1 4 4 -10
12 -29 18 -19 21 12 5 21 -11 21 -12 3 -25 -10 -8 -13 -14 -7 -14 7 0 12 -5
12 -11 0 -5 -6 -7 -12 -3 -10 6 -10 4 0 -8 9 -11 10 -18 2 -23 -6 -3 -7 -12
-3 -18 10 -16 10 -128 1 -134 -5 -2 -8 -10 -8 -16 0 -7 4 -6 11 3 8 12 9 10 7
-10 -2 -14 -7 -28 -13 -32 -6 -5 -6 -8 1 -8 12 0 13 -58 1 -77 -4 -6 -3 -14 2
-17 5 -3 7 -20 6 -36 -2 -23 1 -30 11 -26 8 3 11 0 7 -9 -3 -8 -9 -12 -14 -9
-5 3 -6 -2 -3 -10 3 -9 11 -16 16 -16 6 0 8 -9 5 -19 -3 -12 1 -22 9 -25 8 -3
14 -15 14 -26 0 -11 5 -20 10 -20 6 0 10 -4 10 -10 0 -5 11 -20 25 -34 14 -14
25 -23 25 -20 0 3 6 -1 14 -8 8 -7 12 -16 9 -20 -2 -4 3 -5 11 -2 9 3 16 1 16
-5 0 -6 9 -11 20 -11 11 0 20 -5 20 -11 0 -7 10 -9 25 -7 13 3 24 2 23 -1 -2
-18 4 -22 17 -11 12 10 16 9 21 -4 6 -15 8 -15 21 1 8 10 12 13 9 7 -7 -15 47
-15 56 0 5 8 8 7 8 -2 0 -9 7 -11 21 -7 16 5 20 4 15 -6 -4 -8 0 -5 8 5 14 18
20 15 17 -6 0 -3 12 -3 27 1 15 4 33 6 40 4 6 -3 12 0 12 7 0 6 5 8 10 5 6 -4
7 -12 4 -18 -5 -8 -3 -8 7 1 17 16 32 16 24 0 -4 -7 1 -4 9 6 12 15 16 16 16
5 0 -12 2 -12 10 1 5 8 10 11 10 6 0 -5 10 -1 22 10 12 10 18 13 14 7 -5 -9
-2 -11 8 -7 9 3 16 10 16 16 0 5 5 6 10 3 6 -3 10 -1 10 5 0 6 4 9 9 6 5 -3
15 2 22 11 12 14 12 16 0 8 -9 -5 -12 -4 -7 3 3 6 16 9 27 7 17 -3 20 0 16 15
-3 12 0 17 8 14 7 -3 16 0 21 7 5 8 3 10 -7 5 -8 -4 -4 1 8 12 12 11 19 22 16
26 -4 3 -1 6 6 6 9 0 11 8 8 21 -3 12 -3 18 0 15 11 -11 31 15 26 33 -3 11 0
28 6 39 8 15 8 23 0 28 -8 4 -7 9 2 15 12 8 12 10 0 18 -11 7 -11 9 0 14 11 4
11 6 1 6 -8 1 -10 6 -6 13 12 19 12 48 0 48 -6 0 -4 5 4 10 12 8 12 10 1 10
-11 0 -11 3 0 17 12 14 12 15 1 9 -11 -7 -12 -4 -3 12 8 15 8 23 0 28 -8 4 -7
9 2 15 8 5 9 9 3 9 -14 0 -10 88 5 103 7 7 8 3 4 -12 -3 -13 -1 -21 7 -21 7 0
9 -8 5 -20 -4 -13 -1 -22 9 -26 9 -3 14 -10 11 -14 -6 -9 81 -100 96 -100 5 0
7 -4 4 -10 -6 -9 10 -14 42 -13 7 1 11 -3 8 -7 -6 -9 73 -35 82 -27 3 4 12 -1
20 -11 8 -9 12 -11 8 -4 -7 14 11 17 19 3 7 -10 25 -9 43 2 6 4 14 1 16 -5 4
-10 6 -10 6 0 1 6 6 12 12 12 5 0 8 -4 5 -8 -2 -4 6 -8 19 -8 13 0 21 4 19 8
-3 4 -1 8 5 8 5 0 12 -6 14 -12 4 -10 6 -10 6 0 1 8 6 10 14 5 20 -12 37 -12
37 0 0 7 5 5 10 -3 8 -12 10 -12 10 -1 0 8 7 11 20 8 11 -3 18 -1 15 3 -3 5 8
7 25 5 22 -2 37 2 51 16 10 10 19 14 19 8 0 -6 7 -3 16 5 8 9 21 13 27 9 7 -3
9 -2 4 2 -4 5 5 17 20 27 16 10 28 23 28 30 0 7 8 12 17 12 10 -1 17 1 16 5
-2 22 4 41 12 36 6 -3 10 2 10 12 0 10 7 29 16 41 8 12 12 27 9 32 -3 6 -2 10
2 10 5 0 8 12 7 28 -1 15 4 33 10 41 9 12 8 13 -3 6 -11 -6 -13 -4 -7 11 4 10
10 26 13 34 4 13 4 13 -6 0 -9 -12 -11 -11 -11 8 0 13 4 21 8 18 5 -3 9 1 9 9
0 8 -3 12 -7 10 -4 -2 -6 19 -5 48 2 29 4 52 5 52 1 0 3 12 4 27 1 14 -3 24
-8 21 -5 -4 -7 1 -3 10 22 55 22 53 2 37 -14 -11 -17 -11 -11 -1 5 7 9 41 10
75 1 34 6 67 10 75 7 10 5 12 -4 6 -10 -6 -12 -4 -7 8 4 10 10 25 13 34 5 15
4 16 -5 3 -9 -12 -11 -11 -11 8 0 13 4 21 8 18 5 -3 9 1 9 9 0 8 -3 12 -7 10
-4 -2 -6 19 -5 48 2 29 4 52 5 52 1 0 3 12 4 27 1 14 -3 24 -8 21 -5 -4 -7 1
-3 10 22 55 22 53 2 37 -14 -11 -17 -11 -11 -1 5 7 9 41 10 75 1 34 6 67 10
75 7 10 5 12 -4 6 -10 -6 -12 -4 -7 8 4 10 10 25 13 34 5 15 4 16 -5 3 -9 -12
-11 -11 -11 8 0 13 4 21 8 18 5 -3 9 1 9 9 0 8 -3 12 -7 10 -4 -2 -6 19 -5 48
2 29 4 52 5 52 1 0 3 12 4 27 1 14 -3 24 -8 21 -5 -4 -7 1 -3 10 22 54 22 53
4 39 -14 -12 -15 -11 -8 15 14 51 4 183 -16 206 -10 11 -12 17 -6 13 9 -5 11
-2 7 8 -3 9 -11 13 -18 9 -6 -4 -5 1 3 10 12 15 11 17 -3 17 -9 0 -16 7 -16
15 0 8 -7 15 -15 15 -8 0 -15 5 -15 11 0 5 6 7 13 4 6 -4 4 0 -5 8 -10 8 -15
17 -11 20 3 4 -5 4 -17 2 -12 -2 -20 -2 -17 2 8 7 -18 33 -33 33 -6 0 -8 4 -5
10 3 5 0 7 -8 4 -8 -3 -17 1 -20 9 -3 8 -17 13 -36 12 -16 -1 -28 2 -26 5 8
12 -42 18 -60 7 -12 -6 -16 -6 -11 1 3 5 -3 12 -14 15 -11 3 -23 0 -27 -5 -4
-7 -1 -8 7 -3 9 6 11 4 6 -4 -6 -9 -13 -8 -29 6 -11 10 -17 13 -14 7 4 -7 0
-15 -9 -18 -8 -3 -13 -2 -10 3 3 5 -1 11 -9 15 -8 3 -17 0 -21 -6 -5 -7 -2 -8
6 -3 8 5 11 4 6 -3 -9 -15 -38 -3 -29 12 3 6 -4 2 -17 -9 -13 -11 -20 -14 -16
-7 9 15 -16 16 -31 1 -8 -8 -13 -7 -18 2 -6 8 -4 10 5 4 9 -6 11 -4 5 5 -6 10
-11 9 -22 -5 -7 -11 -13 -14 -13 -9 0 6 -7 11 -15 11 -10 0 -12 -4 -5 -12 6
-7 3 -11 -10 -11 -10 0 -16 5 -13 10 4 5 1 6 -8 0 -8 -5 -17 -9 -21 -9 -4 0
-16 -8 -28 -17 -11 -10 -20 -13 -20 -7 0 6 -8 3 -17 -8 -10 -10 -14 -12 -9 -3
5 8 -5 0 -21 -17 -17 -18 -34 -29 -38 -25 -5 4 -5 2 -2 -4 4 -6 -1 -20 -9 -30
-9 -10 -12 -13 -8 -5 5 9 3 12 -4 7 -7 -4 -12 -15 -12 -26 0 -10 -7 -21 -16
-24 -9 -3 -14 -13 -10 -21 3 -8 1 -17 -5 -21 -6 -3 -8 -12 -5 -20 3 -9 -1 -14
-12 -14 -13 0 -14 -2 -3 -9 10 -6 10 -10 1 -16 -9 -6 -9 -10 1 -16 9 -6 11
-12 4 -16 -7 -5 -11 -59 -10 -141 0 -74 -3 -136 -8 -139 -4 -2 -5 -9 -2 -14 4
-5 1 -9 -5 -9 -7 0 -10 6 -7 14 3 8 3 17 -1 21 -4 4 -7 10 -7 13 -1 4 -5 18
-9 31 -7 19 -10 21 -18 10 -7 -10 -8 -8 -5 9 4 18 2 22 -9 18 -8 -3 -14 -1
-14 5 0 13 -42 53 -59 57 -7 1 -20 9 -28 17 -8 9 -19 13 -24 10 -5 -4 -9 -1
-9 5 0 6 -4 9 -9 6 -15 -9 -42 5 -34 18 4 6 -1 5 -10 -3 -13 -10 -17 -10 -17
-1 0 10 -3 10 -14 1 -8 -7 -17 -8 -19 -3 -5 7 -92 9 -107 2 -3 -1 -9 -1 -15 0
-31 7 -127 6 -131 -2 -3 -4 -10 -8 -15 -8 -6 0 -8 4 -5 9 4 5 -5 4 -18 -2 -13
-7 -22 -15 -20 -18 2 -4 -5 -5 -16 -2 -11 3 -20 1 -20 -5 0 -5 -7 -13 -16 -16
-12 -5 -14 -3 -8 7 5 7 1 5 -8 -5 -9 -11 -21 -20 -25 -21 -4 -1 -7 -5 -5 -9 1
-5 -5 -8 -13 -8 -8 0 -15 -4 -15 -10 0 -5 -7 -10 -15 -10 -8 0 -14 -4 -13 -9
2 -5 -6 -17 -17 -26 -11 -9 -13 -13 -5 -9 12 7 13 5 3 -8 -7 -8 -9 -19 -5 -23
4 -5 1 -5 -5 -1 -7 4 -21 2 -30 -4 -17 -11 -17 -11 0 -6 15 5 16 3 6 -15 -6
-11 -13 -18 -17 -14 -8 8 -11 55 -3 55 4 0 6 12 5 28 -1 15 4 33 10 41 8 11 8
13 -1 7 -8 -4 -14 -2 -14 6 -5 47 -3 75 6 87 7 10 6 15 -2 18 -8 3 -9 13 -3
33 7 23 5 32 -8 40 -12 6 -13 9 -3 10 8 0 11 7 8 20 -3 11 0 20 5 20 6 0 5 6
-2 15 -10 12 -10 18 0 30 10 12 9 16 -4 21 -15 6 -15 8 1 20 15 11 15 13 3 14
-13 0 -13 1 0 10 8 5 10 10 4 10 -6 0 -9 16 -7 40 2 22 -1 40 -6 40 -5 0 -7 9
-4 20 3 11 1 20 -5 20 -6 0 -9 9 -7 20 2 11 0 18 -6 15 -5 -4 -9 1 -9 9 0 9
-9 25 -19 35 -11 11 -17 22 -13 25 3 3 -2 6 -11 6 -9 0 -17 7 -17 15 0 8 -9
15 -20 15 -12 0 -20 7 -20 17 0 9 -3 14 -6 10 -4 -3 -13 1 -21 9 -8 8 -19 12
-24 9 -5 -4 -9 -1 -9 6 0 7 -3 9 -7 6 -3 -4 -16 -1 -27 6 -30 19 -58 29 -51
17z m-558 -360 c1 -11 -1 -22 -5 -24 -4 -2 -8 7 -8 20 -1 13 1 24 5 24 4 0 7
-9 8 -20z m0 -62 c2 -18 0 -20 -7 -8 -12 18 -13 30 -2 30 4 0 9 -10 9 -22z
m838 -297 c3 -5 2 -12 -3 -15 -5 -3 -9 1 -9 9 0 17 3 19 12 6z"/>
</g>
</svg>
